Coordinates
version=1
nRows=12
nColumns=24
inDegrees=yes

Units are S.I. units (second, meters, Newtons, ...)
Angles are in degrees.

endheader
time	pelvis_tilt	pelvis_list	pelvis_rotation	pelvis_tx	pelvis_ty	pelvis_tz	hip_flexion_r	hip_adduction_r	hip_rotation_r	knee_angle_r	ankle_angle_r	subtalar_angle_r	mtp_angle_r	hip_flexion_l	hip_adduction_l	hip_rotation_l	knee_angle_l	ankle_angle_l	subtalar_angle_l	mtp_angle_l	lumbar_extension	lumbar_bending	lumbar_rotation
      1.40700000	     -3.58913108	     -2.36581794	     -6.63056039	      0.93232049	      0.95811783	      0.33459482	    -20.56732810	      1.62693979	      3.83805309	     -4.35065787	     14.32942650	      4.43547068	     10.94040608	     27.82726303	     -4.60407930	     -3.86495214	      6.88541992	      1.11348130	     -1.48822685	      2.86464866	     -9.42892929	      7.67704367	     10.66805660
      1.41116667	     -3.61218537	     -2.17056627	     -6.61374581	      0.93855026	      0.95752499	      0.33399184	    -20.73392827	      1.36074392	      3.69668781	     -4.63826078	     14.05162684	      4.46625164	     11.17010519	     27.88800935	     -4.33344479	     -3.43548627	      6.30042667	      0.71021234	     -2.15921114	      2.94929612	     -9.33557354	      7.40048117	     10.67824116
      1.41533333	     -3.63897860	     -1.96116802	     -6.59440159	      0.94482007	      0.95695486	      0.33339122	    -20.88940470	      1.08421885	      3.55052081	     -4.93809776	     13.74963484	      4.48212739	     11.43260287	     27.95503371	     -4.04531718	     -3.01850504	      5.70744944	      0.21363690	     -2.87901090	      3.04780004	     -9.22941521	      7.10059818	     10.68777017
      1.41950000	     -3.67585648	     -1.73447692	     -6.57927778	      0.95113270	      0.95641145	      0.33277692	    -21.01471483	      0.78981876	      3.39012796	     -5.27361056	     13.42660834	      4.49672215	     11.75540394	     28.02134049	     -3.73905143	     -2.58580003	      5.12797164	     -0.36797298	     -3.68795373	      3.16672844	     -9.11015224	      6.78684299	     10.70141866
      1.42366667	     -3.72088367	     -1.49004117	     -6.56199673	      0.95748717	      0.95589482	      0.33213283	    -21.12072788	      0.47842713	      3.22302887	     -5.62566229	     13.07866178	      4.50150880	     12.13115385	     28.09748855	     -3.40948339	     -2.18027770	      4.54512561	     -1.02439574	     -4.52835162	      3.30221159	     -8.97482247	      6.45169269	     10.71659198
      1.42783333	     -3.76952080	     -1.23016311	     -6.55045690	      0.96384996	      0.95541945	      0.33149419	    -21.18643282	      0.15246326	      3.03139830	     -6.04642299	     12.69686796	      4.48451886	     12.66975414	     28.16665253	     -3.06705549	     -1.75484106	      3.97741732	     -1.72010800	     -5.39723386	      3.48061564	     -8.84915290	      6.08835957	     10.72375569
      1.43200000	     -3.82729871	     -0.94550725	     -6.53140718	      0.97029138	      0.95496938	      0.33083837	    -21.26186369	     -0.19667168	      2.84793054	     -6.40644413	     12.19466564	      4.37607751	     18.54443349	     28.27737280	     -2.69396366	     -1.49401001	      3.35779940	     -2.51216083	     -6.17173412	      5.48478684	     -8.68079299	      5.71907847	     10.69218258
      1.43616667	     -3.91050585	     -0.66659522	     -6.51884332	      0.97672550	      0.95453404	      0.33018266	    -21.27679911	     -0.53556464	      2.67760418	     -6.84457495	     11.76337991	      4.33623463	     18.62440676	     28.40167294	     -2.33133411	     -1.17185164	      2.75815250	     -3.35738916	     -7.02534528	      5.45984782	     -8.49181216	      5.33582770	     10.77481285
      1.44033333	     -3.99420317	     -0.36180996	     -6.50401497	      0.98320048	      0.95414087	      0.32950354	    -21.27679294	     -0.90127619	      2.49183515	     -7.30443015	     11.31701325	      4.31207691	     18.77943303	     28.53241853	     -1.94032893	     -0.88163897	      2.14730419	     -4.24749294	     -7.90154300	      5.45344513	     -8.30700874	      4.93860498	     10.79249224
      1.44450000	     -4.07922311	     -0.04398348	     -6.49412575	      0.98970651	      0.95379759	      0.32883010	    -21.25235259	     -1.28009864	      2.30100561	     -7.80373865	     10.83555445	      4.26385836	     18.99784264	     28.67305631	     -1.53936174	     -0.65386488	      1.51254605	     -5.13583994	     -8.74125332	      5.46147870	     -8.09368582	      4.51827980	     10.82911181
      1.44866667	     -4.17627227	      0.28758521	     -6.47718828	      0.99622396	      0.95348327	      0.32814762	    -21.20284973	     -1.66752868	      2.11866169	     -8.32036625	     10.32829056	      4.20515089	     19.25921769	     28.83827630	     -1.12361662	     -0.47620560	      0.85688915	     -6.04345896	     -9.55347334	      5.47330716	     -7.87694530	      4.08391517	     10.86126409
      1.45283333	     -4.27197652	      0.62328875	     -6.46708401	      1.00271112	      0.95321371	      0.32744459	    -21.10327130	     -2.06305097	      1.91010622	     -8.93150531	      9.76817528	      4.12693567	     19.66310507	     28.99579004	     -0.70652081	     -0.25409863	      0.21280525	     -6.92279581	    -10.39005772	      5.50536872	     -7.68015710	      3.64235283	     10.90041232
